<svg width="64" height="64" viewBox="0 0 64 64" fill="none" xmlns="http://www.w3.org/2000/svg">
<path d="M39.9822 58.6667H9.33331V5.33334H36.9955C42.1155 5.33334 45.7659 6.3289 47.9466 8.32001C50.1274 10.3111 51.2178 13.203 51.2178 16.9956C51.2178 20.8356 50.5303 23.7985 49.1555 25.8845C47.7807 27.923 45.9081 29.2741 43.5378 29.9378V30.4356C50.4118 31.6208 53.8489 36.3141 53.8489 44.5156C53.8489 48.7822 52.7111 52.2193 50.4355 54.8267C48.2074 57.3867 44.7229 58.6667 39.9822 58.6667ZM33.0844 37.4045H26.4V46.1511H32.9422C35.36 46.1511 36.5689 44.6815 36.5689 41.7422C36.5689 38.8504 35.4074 37.4045 33.0844 37.4045ZM31.8044 16.9956H26.4V24.96H31.6622C33.8429 24.96 34.9333 23.6326 34.9333 20.9778C34.9333 18.323 33.8903 16.9956 31.8044 16.9956Z" fill="white"/>
</svg>
